<mxfile host="www.draw.io" modified="2020-04-20T19:52:36.455Z" agent="5.0 (Macintosh; Intel Mac OS X 10_14_6) AppleWebKit/537.36 (KHTML, like Gecko) Chrome/81.0.4044.113 Safari/537.36" etag="87-uyiKnAi5cNLdjmEoc" version="12.9.14" type="github">
  <diagram id="GZ8h7QL0BpFVQE84wsnc" name="Page-1">
    <mxGraphModel dx="478" dy="730" grid="1" gridSize="10" guides="1" tooltips="1" connect="1" arrows="1" fold="1" page="1" pageScale="1" pageWidth="1600" pageHeight="900" math="0" shadow="0">
      <root>
        <mxCell id="0" />
        <mxCell id="1" parent="0" />
        <mxCell id="HmevFcavLtSHZ1Izj36I-5" value="" style="group" vertex="1" connectable="0" parent="1">
          <mxGeometry x="157" y="621" width="120" height="30" as="geometry" />
        </mxCell>
        <mxCell id="HmevFcavLtSHZ1Izj36I-6" value="metricbeat" style="rounded=1;whiteSpace=wrap;html=1;strokeColor=#6c8ebf;strokeWidth=1;fillColor=#dae8fc;fontFamily=Verdana;fontSize=10;align=left;spacingLeft=10;" vertex="1" parent="HmevFcavLtSHZ1Izj36I-5">
          <mxGeometry width="120" height="30" as="geometry" />
        </mxCell>
        <mxCell id="HmevFcavLtSHZ1Izj36I-7" value="DS" style="rounded=1;whiteSpace=wrap;html=1;fontSize=9;fontStyle=1;gradientColor=#FF9933;fillColor=#FFFF33;fontFamily=Verdana;dashed=1;opacity=60;" vertex="1" parent="HmevFcavLtSHZ1Izj36I-5">
          <mxGeometry x="100" y="10" width="20" height="20" as="geometry" />
        </mxCell>
        <mxCell id="EhpsSJ9jtcI42HiW2510-6" value="" style="group" parent="1" vertex="1" connectable="0">
          <mxGeometry x="130" y="530" width="160" height="140" as="geometry" />
        </mxCell>
        <mxCell id="EhpsSJ9jtcI42HiW2510-7" value="" style="rounded=1;whiteSpace=wrap;html=1;strokeColor=#FF3333;strokeWidth=1;fillColor=none;fontFamily=Verdana;fontSize=10;opacity=60;align=left;dashed=1;" parent="EhpsSJ9jtcI42HiW2510-6" vertex="1">
          <mxGeometry width="160" height="140" as="geometry" />
        </mxCell>
        <mxCell id="EhpsSJ9jtcI42HiW2510-12" style="edgeStyle=orthogonalEdgeStyle;rounded=0;orthogonalLoop=1;jettySize=auto;html=1;exitX=0.5;exitY=1;exitDx=0;exitDy=0;startArrow=none;startFill=0;fontSize=14;" parent="EhpsSJ9jtcI42HiW2510-6" edge="1">
          <mxGeometry relative="1" as="geometry">
            <mxPoint x="80" y="123" as="sourcePoint" />
            <mxPoint x="80" y="123" as="targetPoint" />
          </mxGeometry>
        </mxCell>
        <mxCell id="HmevFcavLtSHZ1Izj36I-3" value="" style="group" vertex="1" connectable="0" parent="EhpsSJ9jtcI42HiW2510-6">
          <mxGeometry x="10" y="72" width="120" height="30" as="geometry" />
        </mxCell>
        <mxCell id="EhpsSJ9jtcI42HiW2510-9" value="metricbeat" style="rounded=1;whiteSpace=wrap;html=1;strokeColor=#6c8ebf;strokeWidth=1;fillColor=#dae8fc;fontFamily=Verdana;fontSize=10;align=left;spacingLeft=10;" parent="HmevFcavLtSHZ1Izj36I-3" vertex="1">
          <mxGeometry width="120" height="30" as="geometry" />
        </mxCell>
        <mxCell id="EhpsSJ9jtcI42HiW2510-11" value="D" style="rounded=1;whiteSpace=wrap;html=1;fontSize=9;fontStyle=1;gradientColor=#FF9933;fillColor=#FFFF33;fontFamily=Verdana;dashed=1;opacity=60;" parent="HmevFcavLtSHZ1Izj36I-3" vertex="1">
          <mxGeometry x="100" y="10" width="20" height="20" as="geometry" />
        </mxCell>
        <mxCell id="HmevFcavLtSHZ1Izj36I-8" value="" style="group" vertex="1" connectable="0" parent="EhpsSJ9jtcI42HiW2510-6">
          <mxGeometry x="28" y="25" width="120" height="30" as="geometry" />
        </mxCell>
        <mxCell id="HmevFcavLtSHZ1Izj36I-9" value="filebeat" style="rounded=1;whiteSpace=wrap;html=1;strokeColor=#d79b00;strokeWidth=1;fillColor=#ffe6cc;fontFamily=Verdana;fontSize=10;align=left;spacingLeft=10;" vertex="1" parent="HmevFcavLtSHZ1Izj36I-8">
          <mxGeometry y="4" width="120" height="30" as="geometry" />
        </mxCell>
        <mxCell id="HmevFcavLtSHZ1Izj36I-10" value="DS" style="rounded=1;whiteSpace=wrap;html=1;fontSize=9;fontStyle=1;gradientColor=#FF9933;fillColor=#FFFF33;fontFamily=Verdana;dashed=1;opacity=60;arcSize=22;" vertex="1" parent="HmevFcavLtSHZ1Izj36I-8">
          <mxGeometry x="100" y="14" width="20" height="20" as="geometry" />
        </mxCell>
        <mxCell id="HmevFcavLtSHZ1Izj36I-4" value="" style="group" vertex="1" connectable="0" parent="EhpsSJ9jtcI42HiW2510-6">
          <mxGeometry x="10" y="10" width="120" height="30" as="geometry" />
        </mxCell>
        <mxCell id="EhpsSJ9jtcI42HiW2510-8" value="filebeat" style="rounded=1;whiteSpace=wrap;html=1;strokeColor=#d79b00;strokeWidth=1;fillColor=#ffe6cc;fontFamily=Verdana;fontSize=10;align=left;spacingLeft=10;" parent="HmevFcavLtSHZ1Izj36I-4" vertex="1">
          <mxGeometry width="120" height="30" as="geometry" />
        </mxCell>
        <mxCell id="EhpsSJ9jtcI42HiW2510-10" value="D" style="rounded=1;whiteSpace=wrap;html=1;fontSize=9;fontStyle=1;gradientColor=#FF9933;fillColor=#FFFF33;fontFamily=Verdana;dashed=1;opacity=60;arcSize=22;" parent="HmevFcavLtSHZ1Izj36I-4" vertex="1">
          <mxGeometry x="100" y="10" width="20" height="20" as="geometry" />
        </mxCell>
        <mxCell id="xnrWjppSDBu8TEkVuI01-26" style="edgeStyle=orthogonalEdgeStyle;rounded=0;orthogonalLoop=1;jettySize=auto;html=1;entryX=0;entryY=0.5;entryDx=0;entryDy=0;" parent="1" source="xnrWjppSDBu8TEkVuI01-1" target="xnrWjppSDBu8TEkVuI01-21" edge="1">
          <mxGeometry relative="1" as="geometry" />
        </mxCell>
        <mxCell id="xnrWjppSDBu8TEkVuI01-1" value="&lt;div style=&quot;text-align: center; font-size: 12px;&quot;&gt;&lt;span style=&quot;font-size: 12px;&quot;&gt;Kafka&lt;/span&gt;&lt;/div&gt;" style="ellipse;shape=cloud;whiteSpace=wrap;html=1;rounded=0;strokeColor=#b85450;strokeWidth=1;fillColor=#f8cecc;gradientColor=#ea6b66;fontFamily=Verdana;fontSize=12;opacity=60;align=center;fontStyle=1" parent="1" vertex="1">
          <mxGeometry x="340" y="480" width="120" height="80" as="geometry" />
        </mxCell>
        <mxCell id="xnrWjppSDBu8TEkVuI01-15" value="" style="group" parent="1" vertex="1" connectable="0">
          <mxGeometry x="90" y="360" width="140" height="134" as="geometry" />
        </mxCell>
        <mxCell id="xnrWjppSDBu8TEkVuI01-3" value="" style="rounded=1;whiteSpace=wrap;html=1;strokeColor=#FF3333;strokeWidth=1;fillColor=none;fontFamily=Verdana;fontSize=10;opacity=60;align=left;dashed=1;" parent="xnrWjppSDBu8TEkVuI01-15" vertex="1">
          <mxGeometry width="140" height="134" as="geometry" />
        </mxCell>
        <mxCell id="xnrWjppSDBu8TEkVuI01-4" value="filebeat" style="rounded=1;whiteSpace=wrap;html=1;strokeColor=#d79b00;strokeWidth=1;fillColor=#ffe6cc;fontFamily=Verdana;fontSize=10;align=left;spacingLeft=10;" parent="xnrWjppSDBu8TEkVuI01-15" vertex="1">
          <mxGeometry x="10" y="10" width="120" height="30" as="geometry" />
        </mxCell>
        <mxCell id="xnrWjppSDBu8TEkVuI01-6" value="metricbeat" style="rounded=1;whiteSpace=wrap;html=1;strokeColor=#6c8ebf;strokeWidth=1;fillColor=#dae8fc;fontFamily=Verdana;fontSize=10;align=left;spacingLeft=10;" parent="xnrWjppSDBu8TEkVuI01-15" vertex="1">
          <mxGeometry x="10" y="50" width="120" height="30" as="geometry" />
        </mxCell>
        <mxCell id="xnrWjppSDBu8TEkVuI01-9" value="packetbeat" style="rounded=1;whiteSpace=wrap;html=1;strokeColor=#82b366;strokeWidth=1;fillColor=#d5e8d4;fontFamily=Verdana;fontSize=10;align=left;spacingLeft=10;" parent="xnrWjppSDBu8TEkVuI01-15" vertex="1">
          <mxGeometry x="10" y="90" width="120" height="30" as="geometry" />
        </mxCell>
        <mxCell id="UDXJdPsNeC_32ETcDBZK-1" value="D" style="rounded=1;whiteSpace=wrap;html=1;fontSize=9;fontStyle=1;gradientColor=#FF9933;fillColor=#FFFF33;fontFamily=Verdana;dashed=1;opacity=60;arcSize=22;" parent="xnrWjppSDBu8TEkVuI01-15" vertex="1">
          <mxGeometry x="110" y="20" width="20" height="20" as="geometry" />
        </mxCell>
        <mxCell id="UDXJdPsNeC_32ETcDBZK-2" value="D" style="rounded=1;whiteSpace=wrap;html=1;fontSize=9;fontStyle=1;gradientColor=#FF9933;fillColor=#FFFF33;fontFamily=Verdana;dashed=1;opacity=60;arcSize=22;" parent="xnrWjppSDBu8TEkVuI01-15" vertex="1">
          <mxGeometry x="110" y="60" width="20" height="20" as="geometry" />
        </mxCell>
        <mxCell id="UDXJdPsNeC_32ETcDBZK-3" value="D" style="rounded=1;whiteSpace=wrap;html=1;fontSize=9;fontStyle=1;gradientColor=#FF9933;fillColor=#FFFF33;fontFamily=Verdana;dashed=1;opacity=60;arcSize=22;" parent="xnrWjppSDBu8TEkVuI01-15" vertex="1">
          <mxGeometry x="110" y="100" width="20" height="20" as="geometry" />
        </mxCell>
        <mxCell id="xnrWjppSDBu8TEkVuI01-19" style="edgeStyle=orthogonalEdgeStyle;rounded=0;orthogonalLoop=1;jettySize=auto;html=1;exitX=1;exitY=0.75;exitDx=0;exitDy=0;" parent="1" source="xnrWjppSDBu8TEkVuI01-3" target="xnrWjppSDBu8TEkVuI01-1" edge="1">
          <mxGeometry relative="1" as="geometry">
            <Array as="points">
              <mxPoint x="300" y="461" />
              <mxPoint x="300" y="520" />
            </Array>
          </mxGeometry>
        </mxCell>
        <mxCell id="xnrWjppSDBu8TEkVuI01-25" value="" style="group" parent="1" vertex="1" connectable="0">
          <mxGeometry x="520" y="453" width="140" height="134" as="geometry" />
        </mxCell>
        <mxCell id="xnrWjppSDBu8TEkVuI01-20" value="" style="group" parent="xnrWjppSDBu8TEkVuI01-25" vertex="1" connectable="0">
          <mxGeometry width="140" height="134" as="geometry" />
        </mxCell>
        <mxCell id="xnrWjppSDBu8TEkVuI01-21" value="" style="rounded=1;whiteSpace=wrap;html=1;strokeColor=#FF3333;strokeWidth=1;fillColor=none;fontFamily=Verdana;fontSize=10;opacity=60;align=left;dashed=1;" parent="xnrWjppSDBu8TEkVuI01-20" vertex="1">
          <mxGeometry width="140" height="134" as="geometry" />
        </mxCell>
        <mxCell id="xnrWjppSDBu8TEkVuI01-22" value="logstash" style="rounded=1;whiteSpace=wrap;html=1;strokeColor=#d6b656;strokeWidth=1;fillColor=#fff2cc;fontFamily=Verdana;fontSize=10;align=left;spacingLeft=10;" parent="xnrWjppSDBu8TEkVuI01-20" vertex="1">
          <mxGeometry x="10" y="10" width="120" height="30" as="geometry" />
        </mxCell>
        <mxCell id="xnrWjppSDBu8TEkVuI01-24" value="logstash" style="rounded=1;whiteSpace=wrap;html=1;strokeColor=#d6b656;strokeWidth=1;fillColor=#fff2cc;fontFamily=Verdana;fontSize=10;align=left;spacingLeft=10;" parent="xnrWjppSDBu8TEkVuI01-20" vertex="1">
          <mxGeometry x="10" y="90" width="120" height="30" as="geometry" />
        </mxCell>
        <mxCell id="EhpsSJ9jtcI42HiW2510-1" value="VM" style="rounded=1;whiteSpace=wrap;html=1;fontSize=9;fontStyle=1;gradientColor=#FF9933;fillColor=#FFFF33;fontFamily=Verdana;dashed=1;opacity=80;arcSize=19;" parent="xnrWjppSDBu8TEkVuI01-20" vertex="1">
          <mxGeometry x="110" y="20" width="20" height="20" as="geometry" />
        </mxCell>
        <mxCell id="EhpsSJ9jtcI42HiW2510-3" value="VM" style="rounded=1;whiteSpace=wrap;html=1;fontSize=9;fontStyle=1;gradientColor=#FF9933;fillColor=#FFFF33;fontFamily=Verdana;dashed=1;opacity=80;arcSize=19;" parent="xnrWjppSDBu8TEkVuI01-20" vertex="1">
          <mxGeometry x="110" y="100" width="20" height="20" as="geometry" />
        </mxCell>
        <mxCell id="xnrWjppSDBu8TEkVuI01-74" style="edgeStyle=orthogonalEdgeStyle;rounded=0;orthogonalLoop=1;jettySize=auto;html=1;entryX=0;entryY=0.5;entryDx=0;entryDy=0;startArrow=classic;startFill=1;" parent="1" source="xnrWjppSDBu8TEkVuI01-67" target="xnrWjppSDBu8TEkVuI01-71" edge="1">
          <mxGeometry relative="1" as="geometry" />
        </mxCell>
        <mxCell id="xnrWjppSDBu8TEkVuI01-67" value="&lt;div style=&quot;text-align: center ; font-size: 12px&quot;&gt;&lt;span style=&quot;font-size: 12px&quot;&gt;ES Cluster&lt;/span&gt;&lt;/div&gt;" style="ellipse;shape=cloud;whiteSpace=wrap;html=1;rounded=0;strokeColor=#6c8ebf;strokeWidth=1;fillColor=#dae8fc;gradientColor=#7ea6e0;fontFamily=Verdana;fontSize=12;opacity=60;align=center;fontStyle=1" parent="1" vertex="1">
          <mxGeometry x="740" y="480" width="120" height="80" as="geometry" />
        </mxCell>
        <mxCell id="xnrWjppSDBu8TEkVuI01-68" style="edgeStyle=orthogonalEdgeStyle;rounded=0;orthogonalLoop=1;jettySize=auto;html=1;" parent="1" source="xnrWjppSDBu8TEkVuI01-21" target="xnrWjppSDBu8TEkVuI01-67" edge="1">
          <mxGeometry relative="1" as="geometry">
            <mxPoint x="720" y="550" as="targetPoint" />
          </mxGeometry>
        </mxCell>
        <mxCell id="xnrWjppSDBu8TEkVuI01-69" value="" style="group" parent="1" vertex="1" connectable="0">
          <mxGeometry x="940" y="453" width="140" height="134" as="geometry" />
        </mxCell>
        <mxCell id="xnrWjppSDBu8TEkVuI01-70" value="" style="group" parent="xnrWjppSDBu8TEkVuI01-69" vertex="1" connectable="0">
          <mxGeometry width="140" height="134" as="geometry" />
        </mxCell>
        <mxCell id="xnrWjppSDBu8TEkVuI01-71" value="" style="rounded=1;whiteSpace=wrap;html=1;strokeColor=#FF3333;strokeWidth=1;fillColor=none;fontFamily=Verdana;fontSize=10;opacity=60;align=left;dashed=1;" parent="xnrWjppSDBu8TEkVuI01-70" vertex="1">
          <mxGeometry width="140" height="134" as="geometry" />
        </mxCell>
        <mxCell id="xnrWjppSDBu8TEkVuI01-72" value="kibana" style="rounded=1;whiteSpace=wrap;html=1;strokeColor=#d6b656;strokeWidth=1;fillColor=#fff2cc;fontFamily=Verdana;fontSize=10;align=left;spacingLeft=10;" parent="xnrWjppSDBu8TEkVuI01-70" vertex="1">
          <mxGeometry x="10" y="10" width="120" height="30" as="geometry" />
        </mxCell>
        <mxCell id="xnrWjppSDBu8TEkVuI01-73" value="kibana" style="rounded=1;whiteSpace=wrap;html=1;strokeColor=#d6b656;strokeWidth=1;fillColor=#fff2cc;fontFamily=Verdana;fontSize=10;align=left;spacingLeft=10;" parent="xnrWjppSDBu8TEkVuI01-70" vertex="1">
          <mxGeometry x="10" y="90" width="120" height="30" as="geometry" />
        </mxCell>
        <mxCell id="EhpsSJ9jtcI42HiW2510-2" value="VM" style="rounded=1;whiteSpace=wrap;html=1;fontSize=9;fontStyle=1;gradientColor=#FF9933;fillColor=#FFFF33;fontFamily=Verdana;dashed=1;opacity=80;arcSize=18;" parent="xnrWjppSDBu8TEkVuI01-70" vertex="1">
          <mxGeometry x="110" y="20" width="20" height="20" as="geometry" />
        </mxCell>
        <mxCell id="EhpsSJ9jtcI42HiW2510-4" value="VM" style="rounded=1;whiteSpace=wrap;html=1;fontSize=9;fontStyle=1;gradientColor=#FF9933;fillColor=#FFFF33;fontFamily=Verdana;dashed=1;opacity=80;arcSize=12;" parent="xnrWjppSDBu8TEkVuI01-70" vertex="1">
          <mxGeometry x="110" y="100" width="20" height="20" as="geometry" />
        </mxCell>
        <mxCell id="rvDjTY9M8Ar2wrNe7Sa7-13" style="edgeStyle=orthogonalEdgeStyle;rounded=0;orthogonalLoop=1;jettySize=auto;html=1;startArrow=none;startFill=0;exitX=1;exitY=0.25;exitDx=0;exitDy=0;" parent="1" target="xnrWjppSDBu8TEkVuI01-1" edge="1" source="EhpsSJ9jtcI42HiW2510-7">
          <mxGeometry relative="1" as="geometry">
            <Array as="points">
              <mxPoint x="290" y="559" />
              <mxPoint x="300" y="559" />
              <mxPoint x="300" y="520" />
            </Array>
            <mxPoint x="230.13999999999987" y="558.71" as="sourcePoint" />
          </mxGeometry>
        </mxCell>
        <mxCell id="rvDjTY9M8Ar2wrNe7Sa7-16" value="&lt;b&gt;&lt;i&gt;&lt;font style=&quot;font-size: 14px&quot;&gt;metal &amp;amp; VMs&lt;/font&gt;&lt;/i&gt;&lt;/b&gt;" style="text;html=1;strokeColor=none;fillColor=none;align=center;verticalAlign=middle;whiteSpace=wrap;rounded=0;" parent="1" vertex="1">
          <mxGeometry x="80" y="340" width="90" height="20" as="geometry" />
        </mxCell>
        <mxCell id="EhpsSJ9jtcI42HiW2510-13" value="OpenShift" style="text;html=1;strokeColor=none;fillColor=none;align=center;verticalAlign=middle;whiteSpace=wrap;rounded=0;fontStyle=3;fontSize=14;" parent="1" vertex="1">
          <mxGeometry x="100" y="510" width="40" height="20" as="geometry" />
        </mxCell>
      </root>
    </mxGraphModel>
  </diagram>
</mxfile>
